<mxfile host="65bd71144e">
    <diagram id="mBYV9JXl2sah0ZzObBah" name="Page-1">
        <mxGraphModel dx="1343" dy="1131" grid="1" gridSize="10" guides="1" tooltips="1" connect="1" arrows="1" fold="1" page="1" pageScale="1" pageWidth="850" pageHeight="1100" math="0" shadow="0">
            <root>
                <mxCell id="0"/>
                <mxCell id="1" parent="0"/>
                <mxCell id="2" value="BeanFactory" style="rounded=1;whiteSpace=wrap;html=1;strokeWidth=2;strokeColor=#00CC66;" parent="1" vertex="1">
                    <mxGeometry x="380" y="30" width="110" height="40" as="geometry"/>
                </mxCell>
                <mxCell id="5" style="edgeStyle=orthogonalEdgeStyle;rounded=0;orthogonalLoop=1;jettySize=auto;html=1;entryX=0.5;entryY=1;entryDx=0;entryDy=0;strokeWidth=2;" parent="1" source="3" target="2" edge="1">
                    <mxGeometry relative="1" as="geometry"/>
                </mxCell>
                <mxCell id="3" value="ListableBeanFactory" style="rounded=1;whiteSpace=wrap;html=1;strokeWidth=2;strokeColor=#00CC66;" parent="1" vertex="1">
                    <mxGeometry x="290" y="150" width="130" height="40" as="geometry"/>
                </mxCell>
                <mxCell id="8" style="edgeStyle=orthogonalEdgeStyle;rounded=0;orthogonalLoop=1;jettySize=auto;html=1;entryX=0.5;entryY=1;entryDx=0;entryDy=0;strokeWidth=2;" parent="1" source="6" target="2" edge="1">
                    <mxGeometry relative="1" as="geometry"/>
                </mxCell>
                <mxCell id="6" value="HierarchicalBeanFactory" style="rounded=1;whiteSpace=wrap;html=1;strokeWidth=2;strokeColor=#00CC66;" parent="1" vertex="1">
                    <mxGeometry x="460" y="150" width="160" height="40" as="geometry"/>
                </mxCell>
                <mxCell id="11" style="edgeStyle=orthogonalEdgeStyle;rounded=0;orthogonalLoop=1;jettySize=auto;html=1;exitX=0.5;exitY=0;exitDx=0;exitDy=0;entryX=0.5;entryY=1;entryDx=0;entryDy=0;strokeWidth=2;" parent="1" source="9" target="6" edge="1">
                    <mxGeometry relative="1" as="geometry"/>
                </mxCell>
                <mxCell id="21" style="edgeStyle=orthogonalEdgeStyle;rounded=0;orthogonalLoop=1;jettySize=auto;html=1;exitX=0.5;exitY=0;exitDx=0;exitDy=0;entryX=0.5;entryY=1;entryDx=0;entryDy=0;strokeWidth=2;" parent="1" source="9" target="14" edge="1">
                    <mxGeometry relative="1" as="geometry"/>
                </mxCell>
                <mxCell id="23" style="edgeStyle=orthogonalEdgeStyle;rounded=0;orthogonalLoop=1;jettySize=auto;html=1;strokeWidth=2;" parent="1" source="9" target="13" edge="1">
                    <mxGeometry relative="1" as="geometry"/>
                </mxCell>
                <mxCell id="24" style="edgeStyle=orthogonalEdgeStyle;rounded=0;orthogonalLoop=1;jettySize=auto;html=1;entryX=0.5;entryY=1;entryDx=0;entryDy=0;strokeWidth=2;" parent="1" source="9" target="12" edge="1">
                    <mxGeometry relative="1" as="geometry"/>
                </mxCell>
                <mxCell id="26" style="edgeStyle=orthogonalEdgeStyle;rounded=0;orthogonalLoop=1;jettySize=auto;html=1;strokeWidth=2;exitX=0.5;exitY=0;exitDx=0;exitDy=0;" parent="1" source="9" target="15" edge="1">
                    <mxGeometry relative="1" as="geometry"/>
                </mxCell>
                <mxCell id="27" style="edgeStyle=orthogonalEdgeStyle;rounded=0;orthogonalLoop=1;jettySize=auto;html=1;strokeWidth=2;exitX=0.5;exitY=0;exitDx=0;exitDy=0;exitPerimeter=0;" parent="1" source="9" target="3" edge="1">
                    <mxGeometry relative="1" as="geometry"/>
                </mxCell>
                <mxCell id="9" value="ApplicationContext" style="rounded=1;whiteSpace=wrap;html=1;strokeWidth=2;strokeColor=#00CC66;" parent="1" vertex="1">
                    <mxGeometry x="735" y="290" width="240" height="40" as="geometry"/>
                </mxCell>
                <mxCell id="12" value="MessageSource" style="rounded=1;whiteSpace=wrap;html=1;strokeWidth=2;strokeColor=#00CC66;" parent="1" vertex="1">
                    <mxGeometry x="650" y="150" width="110" height="40" as="geometry"/>
                </mxCell>
                <mxCell id="13" value="EnvironmentCapable" style="rounded=1;whiteSpace=wrap;html=1;strokeWidth=2;strokeColor=#00CC66;" parent="1" vertex="1">
                    <mxGeometry x="790" y="150" width="130" height="40" as="geometry"/>
                </mxCell>
                <mxCell id="14" value="ResourcePatternResolver" style="rounded=1;whiteSpace=wrap;html=1;strokeWidth=2;strokeColor=#00CC66;" parent="1" vertex="1">
                    <mxGeometry x="960" y="150" width="160" height="40" as="geometry"/>
                </mxCell>
                <mxCell id="18" style="edgeStyle=orthogonalEdgeStyle;rounded=0;orthogonalLoop=1;jettySize=auto;html=1;entryX=0.5;entryY=1;entryDx=0;entryDy=0;strokeWidth=2;" parent="1" source="15" target="17" edge="1">
                    <mxGeometry relative="1" as="geometry"/>
                </mxCell>
                <mxCell id="15" value="ApplicationEventPublisher" style="rounded=1;whiteSpace=wrap;html=1;strokeWidth=2;strokeColor=#00CC66;" parent="1" vertex="1">
                    <mxGeometry x="1140" y="150" width="160" height="40" as="geometry"/>
                </mxCell>
                <mxCell id="17" value="ResourceLoader" style="rounded=1;whiteSpace=wrap;html=1;strokeWidth=2;strokeColor=#00CC66;" parent="1" vertex="1">
                    <mxGeometry x="1250" y="30" width="130" height="40" as="geometry"/>
                </mxCell>
                <mxCell id="31" style="edgeStyle=orthogonalEdgeStyle;rounded=0;orthogonalLoop=1;jettySize=auto;html=1;entryX=0.5;entryY=1;entryDx=0;entryDy=0;strokeWidth=2;" parent="1" source="28" target="30" edge="1">
                    <mxGeometry relative="1" as="geometry"/>
                </mxCell>
                <mxCell id="32" style="edgeStyle=orthogonalEdgeStyle;rounded=0;orthogonalLoop=1;jettySize=auto;html=1;entryX=0.5;entryY=1;entryDx=0;entryDy=0;strokeWidth=2;" parent="1" source="28" target="9" edge="1">
                    <mxGeometry relative="1" as="geometry"/>
                </mxCell>
                <mxCell id="28" value="ConfigurableApplicationContext" style="rounded=1;whiteSpace=wrap;html=1;strokeWidth=2;strokeColor=#00CC66;" parent="1" vertex="1">
                    <mxGeometry x="620" y="410" width="240" height="40" as="geometry"/>
                </mxCell>
                <mxCell id="30" value="Lifecycle" style="rounded=1;whiteSpace=wrap;html=1;strokeWidth=2;strokeColor=#00CC66;" parent="1" vertex="1">
                    <mxGeometry x="540" y="290" width="110" height="40" as="geometry"/>
                </mxCell>
                <mxCell id="34" style="edgeStyle=orthogonalEdgeStyle;rounded=0;orthogonalLoop=1;jettySize=auto;html=1;strokeWidth=2;" parent="1" source="33" target="28" edge="1">
                    <mxGeometry relative="1" as="geometry"/>
                </mxCell>
                <mxCell id="38" style="edgeStyle=orthogonalEdgeStyle;rounded=0;orthogonalLoop=1;jettySize=auto;html=1;strokeWidth=2;exitX=0.5;exitY=0;exitDx=0;exitDy=0;" parent="1" source="33" target="35" edge="1">
                    <mxGeometry relative="1" as="geometry">
                        <Array as="points">
                            <mxPoint x="740" y="490"/>
                            <mxPoint x="1315" y="490"/>
                        </Array>
                    </mxGeometry>
                </mxCell>
                <mxCell id="33" value="AbstractApplicationContext" style="rounded=1;whiteSpace=wrap;html=1;strokeWidth=2;strokeColor=#0000FF;" parent="1" vertex="1">
                    <mxGeometry x="620" y="530" width="240" height="40" as="geometry"/>
                </mxCell>
                <mxCell id="37" style="edgeStyle=orthogonalEdgeStyle;rounded=0;orthogonalLoop=1;jettySize=auto;html=1;entryX=0.5;entryY=1;entryDx=0;entryDy=0;strokeWidth=2;" parent="1" source="35" target="17" edge="1">
                    <mxGeometry relative="1" as="geometry"/>
                </mxCell>
                <mxCell id="35" value="ApplicationEventPublisher" style="rounded=1;whiteSpace=wrap;html=1;strokeWidth=2;strokeColor=#00CC66;" parent="1" vertex="1">
                    <mxGeometry x="1235" y="390" width="160" height="40" as="geometry"/>
                </mxCell>
                <mxCell id="44" style="edgeStyle=orthogonalEdgeStyle;rounded=0;orthogonalLoop=1;jettySize=auto;html=1;entryX=0.5;entryY=1;entryDx=0;entryDy=0;strokeWidth=2;fillColor=#b1ddf0;strokeColor=#10739e;" edge="1" parent="1" source="39" target="33">
                    <mxGeometry relative="1" as="geometry"/>
                </mxCell>
                <mxCell id="76" style="edgeStyle=orthogonalEdgeStyle;rounded=0;orthogonalLoop=1;jettySize=auto;html=1;exitX=0;exitY=0.5;exitDx=0;exitDy=0;strokeWidth=2;" edge="1" parent="1" source="39" target="70">
                    <mxGeometry relative="1" as="geometry">
                        <Array as="points">
                            <mxPoint x="490" y="670"/>
                            <mxPoint x="490" y="620"/>
                            <mxPoint x="250" y="620"/>
                        </Array>
                    </mxGeometry>
                </mxCell>
                <mxCell id="39" value="AbstractRefreshableApplicationContext" style="rounded=1;whiteSpace=wrap;html=1;strokeWidth=2;fillColor=#b1ddf0;strokeColor=#10739e;" parent="1" vertex="1">
                    <mxGeometry x="510" y="650" width="240" height="40" as="geometry"/>
                </mxCell>
                <mxCell id="46" style="edgeStyle=orthogonalEdgeStyle;rounded=0;orthogonalLoop=1;jettySize=auto;html=1;strokeWidth=2;fillColor=#b1ddf0;strokeColor=#10739e;" edge="1" parent="1" source="40" target="39">
                    <mxGeometry relative="1" as="geometry"/>
                </mxCell>
                <mxCell id="47" style="edgeStyle=orthogonalEdgeStyle;rounded=0;orthogonalLoop=1;jettySize=auto;html=1;exitX=0.5;exitY=0;exitDx=0;exitDy=0;entryX=0.5;entryY=1;entryDx=0;entryDy=0;strokeWidth=2;fillColor=#b1ddf0;strokeColor=#10739e;" edge="1" parent="1" source="40" target="41">
                    <mxGeometry relative="1" as="geometry"/>
                </mxCell>
                <mxCell id="40" value="AbstractRefreshableConfigApplicationContext" style="rounded=1;whiteSpace=wrap;html=1;strokeWidth=2;fillColor=#b1ddf0;strokeColor=#10739e;" vertex="1" parent="1">
                    <mxGeometry x="410" y="740" width="280" height="40" as="geometry"/>
                </mxCell>
                <mxCell id="41" value="InitializingBean" style="rounded=1;whiteSpace=wrap;html=1;strokeWidth=2;fillColor=#b1ddf0;strokeColor=#10739e;" vertex="1" parent="1">
                    <mxGeometry x="310" y="650" width="150" height="40" as="geometry"/>
                </mxCell>
                <mxCell id="48" style="edgeStyle=orthogonalEdgeStyle;rounded=0;orthogonalLoop=1;jettySize=auto;html=1;entryX=0.5;entryY=1;entryDx=0;entryDy=0;strokeWidth=2;fillColor=#b1ddf0;strokeColor=#10739e;" edge="1" parent="1" source="42">
                    <mxGeometry relative="1" as="geometry">
                        <mxPoint x="550" y="790" as="targetPoint"/>
                    </mxGeometry>
                </mxCell>
                <mxCell id="74" style="edgeStyle=orthogonalEdgeStyle;rounded=0;orthogonalLoop=1;jettySize=auto;html=1;strokeWidth=2;fillColor=#b1ddf0;strokeColor=#10739e;" edge="1" parent="1" source="42" target="72">
                    <mxGeometry relative="1" as="geometry"/>
                </mxCell>
                <mxCell id="42" value="AbstractXmlApplicationContext" style="rounded=1;whiteSpace=wrap;html=1;strokeWidth=2;fillColor=#b1ddf0;strokeColor=#10739e;" vertex="1" parent="1">
                    <mxGeometry x="410" y="830" width="280" height="40" as="geometry"/>
                </mxCell>
                <mxCell id="49" style="edgeStyle=orthogonalEdgeStyle;rounded=0;orthogonalLoop=1;jettySize=auto;html=1;strokeWidth=2;fillColor=#b1ddf0;strokeColor=#10739e;" edge="1" parent="1" source="43" target="42">
                    <mxGeometry relative="1" as="geometry"/>
                </mxCell>
                <mxCell id="62" style="edgeStyle=orthogonalEdgeStyle;rounded=0;orthogonalLoop=1;jettySize=auto;html=1;strokeWidth=2;fillColor=#b1ddf0;strokeColor=#10739e;" edge="1" parent="1" source="43" target="61">
                    <mxGeometry relative="1" as="geometry"/>
                </mxCell>
                <mxCell id="43" value="ClassPathXmlApplicationContext" style="rounded=1;whiteSpace=wrap;html=1;strokeWidth=2;fillColor=#b1ddf0;strokeColor=#10739e;" vertex="1" parent="1">
                    <mxGeometry x="410" y="935" width="280" height="40" as="geometry"/>
                </mxCell>
                <mxCell id="50" value="&lt;b&gt;&lt;font color=&quot;#99004d&quot; style=&quot;font-size: 15px&quot;&gt;uid&lt;br&gt;refresh()&lt;/font&gt;&lt;/b&gt;" style="text;html=1;align=left;verticalAlign=middle;resizable=0;points=[];autosize=1;strokeColor=none;strokeWidth=2;" vertex="1" parent="1">
                    <mxGeometry x="555" y="530" width="80" height="40" as="geometry"/>
                </mxCell>
                <mxCell id="52" style="edgeStyle=orthogonalEdgeStyle;rounded=0;orthogonalLoop=1;jettySize=auto;html=1;entryX=0.5;entryY=1;entryDx=0;entryDy=0;strokeWidth=2;fillColor=#f8cecc;strokeColor=#b85450;" edge="1" parent="1" source="51" target="33">
                    <mxGeometry relative="1" as="geometry"/>
                </mxCell>
                <mxCell id="54" style="edgeStyle=orthogonalEdgeStyle;rounded=0;orthogonalLoop=1;jettySize=auto;html=1;entryX=0.5;entryY=1;entryDx=0;entryDy=0;strokeWidth=2;fillColor=#f8cecc;strokeColor=#b85450;" edge="1" parent="1" source="51" target="53">
                    <mxGeometry relative="1" as="geometry"/>
                </mxCell>
                <mxCell id="51" value="GenericApplicationContext" style="rounded=1;whiteSpace=wrap;html=1;strokeWidth=2;fillColor=#f8cecc;" vertex="1" parent="1">
                    <mxGeometry x="860" y="650" width="240" height="40" as="geometry"/>
                </mxCell>
                <mxCell id="53" value="BeanDefinitionRegistry" style="rounded=1;whiteSpace=wrap;html=1;strokeWidth=2;fillColor=#f8cecc;strokeColor=#00CC66;" vertex="1" parent="1">
                    <mxGeometry x="1080" y="530" width="170" height="40" as="geometry"/>
                </mxCell>
                <mxCell id="57" style="edgeStyle=orthogonalEdgeStyle;rounded=0;orthogonalLoop=1;jettySize=auto;html=1;strokeWidth=2;fillColor=#f8cecc;strokeColor=#b85450;" edge="1" parent="1" source="55" target="51">
                    <mxGeometry relative="1" as="geometry"/>
                </mxCell>
                <mxCell id="58" style="edgeStyle=orthogonalEdgeStyle;rounded=0;orthogonalLoop=1;jettySize=auto;html=1;entryX=0.5;entryY=1;entryDx=0;entryDy=0;strokeWidth=2;fillColor=#f8cecc;strokeColor=#b85450;" edge="1" parent="1" source="55" target="56">
                    <mxGeometry relative="1" as="geometry"/>
                </mxCell>
                <mxCell id="55" value="AnnotationConfigApplicationContext" style="rounded=1;whiteSpace=wrap;html=1;strokeWidth=2;fillColor=#f8cecc;" vertex="1" parent="1">
                    <mxGeometry x="995" y="780" width="240" height="40" as="geometry"/>
                </mxCell>
                <mxCell id="56" value="AnnotationConfigRegistry" style="rounded=1;whiteSpace=wrap;html=1;strokeWidth=2;fillColor=#f8cecc;strokeColor=#00CC66;" vertex="1" parent="1">
                    <mxGeometry x="1170" y="650" width="190" height="40" as="geometry"/>
                </mxCell>
                <mxCell id="61" value="1. 调用父类方法: 初始化相关变量&lt;br&gt;2. 设置配置文件路径, 并初始化环境&lt;br&gt;3. 调用 refresh()&amp;nbsp;" style="shape=note;strokeWidth=1;fontSize=14;size=20;whiteSpace=wrap;html=1;align=left;fillColor=#FFFFCC;strokeColor=none;" vertex="1" parent="1">
                    <mxGeometry x="110" y="920" width="240" height="70" as="geometry"/>
                </mxCell>
                <mxCell id="63" value="1. 接口: 绿色[00CC66]&lt;br&gt;2. 抽象类: 蓝色[0000FF]&amp;nbsp;&lt;br&gt;3. 实现类: 黑色[000000]" style="shape=note;strokeWidth=1;fontSize=14;size=20;whiteSpace=wrap;html=1;align=left;fillColor=#FFFFCC;strokeColor=none;" vertex="1" parent="1">
                    <mxGeometry x="70" y="40" width="190" height="80" as="geometry"/>
                </mxCell>
                <mxCell id="70" value="1. refresBeanFactory&lt;br&gt;2. 创建 BeanFactory[DLBF]&lt;br&gt;3. 设置相关属性&lt;br&gt;4. 加载 BeanDefinition" style="shape=note;strokeWidth=1;fontSize=14;size=20;whiteSpace=wrap;html=1;align=left;fillColor=#FFFFCC;strokeColor=none;" vertex="1" parent="1">
                    <mxGeometry x="140" y="500" width="240" height="77" as="geometry"/>
                </mxCell>
                <mxCell id="72" value="1. 创建 XmlBeanDefinitionReader&lt;br&gt;2. 并设置 env, resource-loader, entity-resolver&lt;br&gt;3. 并初始化 validating&lt;br&gt;&lt;font color=&quot;#0000ff&quot;&gt;4. loadBeanDefinition 流程&lt;/font&gt;" style="shape=note;strokeWidth=1;fontSize=14;size=20;whiteSpace=wrap;html=1;align=left;fillColor=#FFFFCC;strokeColor=none;" vertex="1" parent="1">
                    <mxGeometry x="60" y="809" width="300" height="83" as="geometry"/>
                </mxCell>
            </root>
        </mxGraphModel>
    </diagram>
</mxfile>
